<svg version="1.2" xmlns="http://www.w3.org/2000/svg" viewBox="0 0 172 172" width="172" height="172"><style>.a{fill:#eab5d8}.b{fill:none;stroke:#fff;stroke-width:6}.c{fill:none;stroke:#111}.d{fill:#111}</style><path class="a" d="m86 3c45.8 0 83 37.2 83 83 0 45.8-37.2 83-83 83-45.8 0-83-37.2-83-83 0-45.8 37.2-83 83-83z"/><path class="b" d="m86 3c45.8 0 83 37.2 83 83 0 45.8-37.2 83-83 83-45.8 0-83-37.2-83-83 0-45.8 37.2-83 83-83z"/><path class="c" d="m86 46.5c21.8 0 39.5 17.7 39.5 39.5 0 21.8-17.7 39.5-39.5 39.5-21.8 0-39.5-17.7-39.5-39.5 0-21.8 17.7-39.5 39.5-39.5z"/><path fill-rule="evenodd" class="d" d="m82.6 141.8l-1.3 10.2-4.1-0.5q-2.3-0.2-3.2-1.6-1-1.3-0.7-4.1 0.4-2.6 1.6-3.7 1.2-1.1 3.5-0.8zm-1.9 1.1l-2.1-0.2q-1-0.1-1.7 0.1-0.7 0.2-1.2 0.9-0.4 0.8-0.6 2.3-0.1 1.5 0.1 2.4 0.2 0.9 0.8 1.3 0.6 0.4 1.7 0.5l2.1 0.3z"/><path fill-rule="evenodd" class="d" d="m68 138.7q2 0.6 2.6 1.9 0.6 1.2 0 3.1-0.6 1.8-1.9 2.4-1.2 0.7-3.1 0.1-2-0.6-2.6-1.9-0.6-1.3 0-3.1 0.6-1.8 1.9-2.5 1.2-0.7 3.1 0zm-0.4 1.4q-1.2-0.4-1.8 0-0.7 0.4-1.1 1.6-0.4 1.3-0.1 2 0.3 0.7 1.4 1.1 1.2 0.3 1.8-0.1 0.7-0.3 1.1-1.6 0.4-1.2 0.1-2-0.3-0.7-1.4-1z"/><path class="d" d="m61.6 136.2l-3.7 6.7-1.4-0.8 0.3-0.7q-0.6 0.1-1.4 0-0.8-0.1-1.5-0.5-1.3-0.7-1.6-1.7-0.2-0.9 0.5-2.2l2.4-4.3 1.5 0.9-2.4 4.2q-0.4 0.8-0.2 1.2 0.1 0.5 1 1 0.5 0.3 1.1 0.4 0.6 0 1.1-0.1l2.7-4.9z"/><path fill-rule="evenodd" class="d" d="m50.8 129.1q0.6 0.5 0.9 1 0.3 0.6 0.3 1.3-0.1 0.6-0.6 1.2-0.7 0.8-1.7 0.9-1 0-2.2-1l-1.8-1.5-0.3 0.3q-0.3 0.4-0.4 0.7-0.1 0.4 0.2 0.8 0.2 0.4 0.9 0.9 1 0.9 2.2 1.3l-0.8 1q-0.6-0.2-1.2-0.5-0.7-0.4-1.3-0.9-1.3-1.1-1.5-2.2-0.3-1.1 0.7-2.2l3.1-3.8 1.1 0.9-0.4 0.7q0.7 0 1.3 0.2 0.7 0.2 1.5 0.9zm-1.1 0.7q-0.6-0.5-1.3-0.7-0.6-0.2-1.2 0l-0.8 1 1.9 1.5q0.6 0.5 1 0.5 0.5 0 0.8-0.5 0.4-0.5 0.3-0.9-0.2-0.5-0.7-0.9z"/><path class="d" d="m43.4 121.8q0.8 0.9 0.7 1.8-0.1 0.8-0.9 1.6l-3 2.6 0.8 0.9-1.1 0.9-0.7-0.9-1.3 1.2-1.6-1 1.7-1.5-1.3-1.5 1.1-0.8 1.3 1.4 2.9-2.5q0.4-0.5 0.4-0.9 0-0.4-0.4-0.9-0.3-0.3-0.7-0.6l0.9-0.8q0.6 0.3 1.2 1z"/><path fill-rule="evenodd" class="d" d="m38.4 114.8q1.1 1.7 0.8 3.1-0.2 1.5-1.9 2.6-1.5 0.9-2.9 0.7-1.4-0.2-2.4-1.8-1-1.4-0.7-2.6 0.3-1.3 1.5-2l1.2-0.8 3 4.7q0.8-0.7 0.8-1.5 0-0.8-0.7-2-0.3-0.4-0.8-0.9-0.4-0.4-0.8-0.7l1.1-0.7q0.5 0.3 0.9 0.8 0.5 0.5 0.9 1.1zm-2.4 4.5l-2.1-3.4-0.5 0.3q-0.6 0.4-0.8 1-0.1 0.6 0.4 1.5 0.7 1 1.4 1.1 0.7 0.1 1.6-0.5z"/><path class="d" d="m33 103.8l-9.9 2.7-0.4-1.4 5.9-7.2-7.3 2-0.5-1.7 9.9-2.7 0.5 1.5-5.9 7.1 7.3-2z"/><path fill-rule="evenodd" class="d" d="m30.4 89.2q0.2 2-0.8 3.1-0.9 1-2.8 1.1-1.9 0.1-3-0.7-1.1-0.9-1.2-3-0.2-2 0.8-3 0.9-1.1 2.8-1.2 1.9-0.1 3 0.8 1.1 0.8 1.2 2.9zm-1.4 0.1q-0.1-1.2-0.7-1.7-0.7-0.4-2-0.3-1.3 0.1-1.8 0.6-0.5 0.5-0.5 1.7 0.1 1.2 0.7 1.7 0.6 0.4 2 0.4 1.3-0.1 1.8-0.7 0.6-0.5 0.5-1.7z"/><path class="d" d="m30.4 80.7l-7.8 1 0.3-1.8 5.6-0.6-4.4-2-0.9-0.1 0.2-1.4 5.7-0.9-5.3-2 0.2-1.7 7.3 2.9-0.3 1.7-5.1 0.9 4.7 2.3z"/><path class="d" d="m34.4 64.6l-1.2-0.5 0.5-1.4 1.3 0.6z"/><path fill-rule="evenodd" class="d" d="m40.1 54l-8.1-6.3 2.6-3.3q1.4-1.8 3-1.9 1.6-0.2 3.8 1.6 2.1 1.6 2.4 3.2 0.3 1.6-1.1 3.5zm0-2.3l1.3-1.7q0.6-0.7 0.8-1.5 0.2-0.7-0.2-1.4-0.5-0.8-1.7-1.7-1.2-1-2-1.3-0.9-0.2-1.5 0.1-0.7 0.3-1.4 1.2l-1.3 1.7z"/><path fill-rule="evenodd" class="d" d="m50.3 43.2q-1.6 1.4-2.9 1.2-1.4-0.1-2.7-1.6-1.2-1.4-1.2-2.8 0.1-1.4 1.6-2.8 1.6-1.3 3-1.1 1.4 0.1 2.6 1.5 1.3 1.5 1.2 2.9 0 1.4-1.6 2.7zm-1-1.1q0.9-0.8 0.9-1.5 0-0.8-0.8-1.8-0.9-1-1.6-1.1-0.8-0.1-1.7 0.7-0.9 0.7-0.9 1.5 0 0.8 0.9 1.8 0.8 1 1.6 1.1 0.7 0.1 1.6-0.7z"/><path class="d" d="m55.7 39l-3.8-6.6 1.4-0.8 0.5 0.6q0.2-0.6 0.7-1.2 0.5-0.6 1.2-1 1.3-0.7 2.2-0.5 1 0.3 1.7 1.6l2.4 4.2-1.5 0.9-2.4-4.2q-0.4-0.8-0.9-0.9-0.5-0.1-1.3 0.4-0.5 0.3-0.9 0.8-0.4 0.4-0.5 1l2.7 4.8z"/><path fill-rule="evenodd" class="d" d="m67.4 33.5q-0.7 0.2-1.3 0.2-0.7-0.1-1.2-0.4-0.5-0.4-0.8-1.1-0.4-1.1 0.1-1.9 0.5-0.9 2-1.4l2.3-0.8-0.2-0.4q-0.1-0.5-0.4-0.7-0.3-0.3-0.7-0.2-0.5 0-1.3 0.2-1.3 0.5-2.2 1.3l-0.5-1.3q0.5-0.3 1.1-0.7 0.7-0.4 1.5-0.6 1.5-0.6 2.6-0.3 1 0.4 1.5 1.8l1.6 4.6-1.4 0.5-0.3-0.7q-0.3 0.6-0.9 1.1-0.5 0.4-1.5 0.8zm0-1.4q0.8-0.2 1.2-0.7 0.5-0.4 0.7-1l-0.5-1.2-2.2 0.8q-0.7 0.2-1 0.6-0.2 0.4 0 1 0.2 0.6 0.7 0.7 0.4 0.1 1.1-0.2z"/><path class="d" d="m77.5 30.9q-1.2 0.2-1.9-0.3-0.7-0.6-0.9-1.7l-0.7-3.9-1.1 0.2-0.3-1.3 1.1-0.2-0.3-1.7 1.6-0.8 0.4 2.2 2-0.4 0.2 1.4-1.9 0.3 0.7 3.8q0.1 0.7 0.5 0.9 0.3 0.2 1 0.1 0.4-0.1 0.8-0.4l0.3 1.3q-0.6 0.3-1.5 0.5z"/><path fill-rule="evenodd" class="d" d="m86 30.2q-1.9 0.1-3-0.9-1.2-0.9-1.2-2.9-0.1-1.9 0.8-2.9 0.9-1.1 2.8-1.2 1.8 0 2.6 0.9 0.9 0.9 1 2.3v1.4l-5.5 0.1q0.1 1.1 0.8 1.5 0.7 0.4 2.1 0.4 0.5 0 1.1-0.2 0.7-0.1 1.1-0.3v1.3q-0.5 0.3-1.1 0.4-0.7 0.1-1.5 0.1zm-2.6-4.3l4.1-0.1-0.1-0.5q0-0.8-0.4-1.2-0.5-0.5-1.5-0.5-1.2 0.1-1.7 0.6-0.4 0.6-0.4 1.7z"/><path class="d" d="m98.2 31.4l2.9-10 1.4 0.5 3.1 8.7 2.1-7.3 1.7 0.5-2.8 9.9-1.5-0.4-3.1-8.7-2.1 7.2z"/><path fill-rule="evenodd" class="d" d="m112.1 36.7q-1.8-0.9-2.2-2.3-0.4-1.3 0.5-3 0.9-1.7 2.2-2.2 1.3-0.5 3.1 0.5 1.8 0.9 2.2 2.3 0.4 1.3-0.5 3-0.8 1.7-2.1 2.2-1.4 0.5-3.2-0.5zm0.7-1.3q1 0.5 1.8 0.3 0.7-0.3 1.3-1.5 0.6-1.2 0.4-1.9-0.2-0.8-1.3-1.3-1-0.5-1.7-0.3-0.8 0.3-1.3 1.5-0.6 1.2-0.5 1.9 0.2 0.8 1.3 1.3z"/><path class="d" d="m119.4 41.1l3.2-7.2 1.3 1.1-2.4 5.1 4-2.6 0.6-0.7 1.1 0.8-2.2 5.3 4.5-3.5 1.3 1.1-6.3 4.7-1.2-1 1.8-4.9-4.4 2.8z"/><path class="d" d="m131 52.8l1.1-0.8 0.9 1.2-1.1 0.8z"/><path fill-rule="evenodd" class="d" d="m137.2 63.2l9.6-3.7 1.5 3.9q0.8 2.1 0 3.6-0.7 1.5-3.3 2.5-2.5 0.9-4 0.3-1.5-0.6-2.4-2.7zm1.9 1.1l0.8 2q0.3 1 0.9 1.5 0.5 0.5 1.4 0.6 0.8 0 2.3-0.6 1.4-0.5 2.1-1.1 0.6-0.6 0.7-1.3 0.1-0.7-0.3-1.8l-0.8-2z"/><path fill-rule="evenodd" class="d" d="m141.1 77.5q-0.3-2 0.5-3.1 0.9-1.1 2.8-1.5 1.8-0.3 3 0.5 1.2 0.8 1.5 2.8 0.4 2-0.5 3.1-0.8 1.1-2.7 1.4-1.9 0.4-3.1-0.4-1.1-0.8-1.5-2.8zm1.5-0.3q0.2 1.2 0.8 1.6 0.7 0.4 2 0.2 1.3-0.2 1.8-0.8 0.4-0.6 0.2-1.8-0.1-1.1-0.8-1.6-0.7-0.3-1.9-0.1-1.3 0.2-1.8 0.8-0.5 0.6-0.3 1.7z"/><path class="d" d="m142 84.3l7.6 0.2-0.1 1.6-0.8 0.1q0.4 0.5 0.7 1.2 0.2 0.7 0.2 1.6 0 1.5-0.7 2.1-0.7 0.7-2.2 0.6l-4.9-0.1 0.1-1.7 4.8 0.1q0.9 0 1.2-0.3 0.4-0.4 0.4-1.4 0-0.6-0.2-1.1-0.2-0.6-0.6-1l-5.6-0.1z"/><path fill-rule="evenodd" class="d" d="m140.6 97.2q0.2-0.7 0.6-1.3 0.3-0.5 0.9-0.8 0.6-0.2 1.3-0.1 1.1 0.2 1.6 1.1 0.5 0.9 0.2 2.4l-0.5 2.4h0.3q0.6 0.2 0.9 0 0.4 0 0.6-0.5 0.2-0.3 0.4-1.2 0.3-1.3 0.1-2.5l1.3 0.2q0.1 0.6 0.1 1.3-0.1 0.8-0.2 1.6-0.4 1.6-1.2 2.4-0.9 0.7-2.3 0.4l-4.8-1 0.3-1.5 0.8 0.1q-0.4-0.6-0.5-1.3-0.1-0.7 0.1-1.7zm1.2 0.7q-0.2 0.8-0.1 1.4 0.2 0.6 0.5 1.1l1.3 0.2 0.5-2.3q0.2-0.8 0-1.2-0.3-0.4-0.9-0.5-0.5-0.1-0.9 0.2-0.3 0.4-0.4 1.1z"/><path class="d" d="m137.6 107.2q0.4-1.2 1.2-1.5 0.9-0.3 1.9 0.1l3.7 1.4 0.4-1.1 1.3 0.5-0.4 1.1 1.6 0.6-0.1 1.8-2.1-0.8-0.7 1.9-1.3-0.6 0.7-1.8-3.6-1.4q-0.6-0.2-1 0-0.3 0.2-0.6 0.8-0.1 0.4-0.2 0.9l-1.1-0.4q0-0.7 0.3-1.5z"/><path fill-rule="evenodd" class="d" d="m133.7 114.8q1-1.7 2.4-2.2 1.4-0.4 3.1 0.6 1.6 0.9 2.1 2.2 0.4 1.3-0.5 3-0.9 1.5-2.1 1.8-1.2 0.3-2.4-0.4l-1.2-0.7 2.7-4.8q-1-0.5-1.7-0.1-0.7 0.4-1.4 1.6-0.3 0.5-0.5 1.1-0.2 0.5-0.3 1l-1.1-0.6q0.1-0.6 0.3-1.2 0.3-0.6 0.6-1.3zm5.1 0l-2 3.5 0.5 0.3q0.6 0.4 1.2 0.2 0.6-0.2 1.1-1 0.6-1.1 0.4-1.8-0.2-0.6-1.2-1.2z"/><path class="d" d="m126.5 124.7l7 7.5-1.1 1-9.1-1.8 5.1 5.5-1.2 1.2-7.1-7.6 1.2-1 9 1.9-5.1-5.6z"/><path fill-rule="evenodd" class="d" d="m114.7 133.7q1.7-1 3.1-0.7 1.3 0.4 2.3 2 1 1.6 0.8 3-0.3 1.4-2 2.5-1.8 1-3.1 0.7-1.4-0.4-2.4-2-1-1.6-0.7-3 0.3-1.4 2-2.5zm0.8 1.3q-1 0.6-1.2 1.4-0.1 0.8 0.6 1.9 0.7 1.1 1.4 1.3 0.8 0.2 1.8-0.4 1-0.6 1.1-1.4 0.1-0.7-0.5-1.8-0.7-1.2-1.5-1.4-0.7-0.2-1.7 0.4z"/><path class="d" d="m107.2 137.7l4.5 6.4-1.7 0.6-3.1-4.7 0.2 4.8 0.3 0.9-1.2 0.5-3.5-4.6 0.7 5.6-1.6 0.6-0.8-7.8 1.5-0.6 3.3 4.1-0.2-5.2z"/></svg>