<svg version="1.2" xmlns="http://www.w3.org/2000/svg" viewBox="0 0 149 144" width="149" height="144"><defs><linearGradient id="P" gradientUnits="userSpaceOnUse"/><linearGradient id="g1" x2="1" href="#P" gradientTransform="matrix(58,67,-201.417,174.361,46,24)"><stop stop-color="#c8f168" stop-opacity="1"/><stop offset="1" stop-color="#c8f168" stop-opacity=".07"/></linearGradient><linearGradient id="g2" x2="1" href="#P" gradientTransform="matrix(58,67,-201.417,174.361,46,24)"><stop stop-color="#c8f168" stop-opacity="1"/><stop offset="1" stop-color="#c8f168" stop-opacity=".07"/></linearGradient><linearGradient id="g3" x2="1" href="#P" gradientTransform="matrix(58,67,-201.418,174.362,46,24)"><stop stop-color="#c8f168" stop-opacity="1"/><stop offset="1" stop-color="#c8f168" stop-opacity=".07"/></linearGradient><linearGradient id="g4" x2="1" href="#P" gradientTransform="matrix(58,67,-201.416,174.36,46,24)"><stop stop-color="#c8f168" stop-opacity="1"/><stop offset="1" stop-color="#c8f168" stop-opacity=".07"/></linearGradient><linearGradient id="g5" x2="1" href="#P" gradientTransform="matrix(58,67,-201.415,174.359,46,24)"><stop stop-color="#c8f168" stop-opacity="1"/><stop offset="1" stop-color="#c8f168" stop-opacity=".07"/></linearGradient><linearGradient id="g6" x2="1" href="#P" gradientTransform="matrix(58,67,-201.417,174.361,46,24)"><stop stop-color="#c8f168" stop-opacity="1"/><stop offset="1" stop-color="#c8f168" stop-opacity=".07"/></linearGradient></defs><style>.a{fill:url(#g1)}.b{fill:url(#g2)}.c{fill:url(#g3)}.d{fill:url(#g4)}.e{fill:url(#g5)}.f{fill:url(#g6)}</style><filter id="f0"><feFlood flood-color="#eab5d8" flood-opacity="1" /><feBlend mode="normal" in2="SourceGraphic"/><feComposite in2="SourceAlpha" operator="in" /></filter><g style="opacity:.3" filter="url(#f0)"><path fill-rule="evenodd" class="a" d="m2.9 86.6c-7.7-8.9 7.8-34.8 34.6-57.8 26.7-23.1 54.6-34.6 62.3-25.7 7.7 8.9-7.8 34.8-34.6 57.9-26.7 23.1-54.6 34.6-62.3 25.6zm95-74.6c0.7-3.5 0.1-5.5-0.8-6.6-0.9-1-2.8-1.9-6.4-1.7-3.5 0.1-8.1 1.3-13.6 3.5-10.8 4.5-24.2 12.9-37.3 24.3-13.2 11.3-23.5 23.3-29.5 33.3-3 5.1-4.8 9.5-5.5 13-0.7 3.5-0.1 5.5 0.8 6.5 0.9 1.1 2.8 2 6.4 1.8 3.5-0.2 8.1-1.3 13.6-3.6 10.8-4.4 24.2-12.8 37.3-24.2 13.2-11.3 23.5-23.3 29.5-33.4 3-5 4.8-9.4 5.5-12.9z"/><path fill-rule="evenodd" class="b" d="m12.2 97.4c-7.7-8.9 7.8-34.8 34.5-57.9 26.8-23.1 54.7-34.5 62.4-25.6 7.6 8.9-7.8 34.8-34.6 57.8-26.8 23.1-54.7 34.6-62.3 25.7zm95-74.7c0.7-3.5 0.1-5.5-0.8-6.5-0.9-1.1-2.8-1.9-6.4-1.8-3.6 0.2-8.2 1.3-13.6 3.6-10.9 4.4-24.2 12.8-37.4 24.2-13.1 11.4-23.4 23.3-29.4 33.4-3 5-4.9 9.4-5.6 12.9-0.7 3.5-0.1 5.5 0.8 6.6 1 1 2.8 1.9 6.4 1.7 3.6-0.1 8.2-1.3 13.6-3.5 10.9-4.5 24.2-12.9 37.4-24.2 13.2-11.4 23.4-23.4 29.4-33.4 3.1-5.1 4.9-9.5 5.6-13z"/><path fill-rule="evenodd" class="c" d="m21.4 108.1c-7.7-8.9 7.8-34.8 34.6-57.8 26.7-23.1 54.6-34.6 62.3-25.7 7.7 8.9-7.8 34.8-34.5 57.9-26.8 23.1-54.7 34.5-62.4 25.6zm95-74.6c0.7-3.5 0.1-5.5-0.8-6.6-0.9-1-2.7-1.9-6.3-1.7-3.6 0.1-8.2 1.3-13.6 3.5-10.9 4.5-24.2 12.9-37.4 24.2-13.2 11.4-23.5 23.4-29.5 33.4-3 5.1-4.8 9.5-5.5 13-0.7 3.5-0.1 5.5 0.8 6.5 0.9 1.1 2.8 1.9 6.4 1.8 3.5-0.2 8.1-1.3 13.6-3.6 10.8-4.4 24.2-12.8 37.3-24.2 13.2-11.3 23.5-23.3 29.5-33.4 3-5 4.9-9.4 5.5-12.9z"/><path fill-rule="evenodd" class="d" d="m30.7 118.9c-7.7-8.9 7.8-34.8 34.5-57.9 26.8-23.1 54.7-34.5 62.4-25.6 7.7 8.9-7.8 34.8-34.6 57.8-26.7 23.1-54.6 34.6-62.3 25.7zm95-74.7c0.7-3.5 0.1-5.5-0.8-6.5-0.9-1.1-2.8-2-6.4-1.8-3.5 0.2-8.1 1.3-13.6 3.6-10.8 4.4-24.2 12.8-37.3 24.2-13.2 11.3-23.5 23.3-29.5 33.4-3 5-4.9 9.4-5.5 12.9-0.7 3.5-0.1 5.5 0.8 6.6 0.9 1 2.7 1.9 6.3 1.7 3.6-0.1 8.2-1.3 13.6-3.5 10.9-4.5 24.2-12.9 37.4-24.3 13.2-11.3 23.5-23.3 29.5-33.3 3-5.1 4.8-9.5 5.5-13z"/><path fill-rule="evenodd" class="e" d="m39.9 129.6c-7.6-8.9 7.8-34.8 34.6-57.9 26.8-23 54.7-34.5 62.3-25.6 7.7 8.9-7.8 34.8-34.5 57.9-26.8 23-54.7 34.5-62.4 25.6zm95.1-74.6c0.7-3.6 0.1-5.5-0.8-6.6-1-1-2.8-1.9-6.4-1.7-3.6 0.1-8.2 1.3-13.6 3.5-10.9 4.5-24.2 12.9-37.4 24.2-13.2 11.4-23.4 23.3-29.4 33.4-3.1 5.1-4.9 9.5-5.6 12.9-0.7 3.6-0.1 5.6 0.8 6.6 0.9 1.1 2.8 1.9 6.4 1.8 3.6-0.2 8.2-1.4 13.6-3.6 10.9-4.5 24.2-12.9 37.4-24.2 13.1-11.4 23.4-23.3 29.4-33.4 3-5 4.9-9.4 5.6-12.9z"/><path fill-rule="evenodd" class="f" d="m49.2 140.4c-7.7-8.9 7.8-34.8 34.6-57.9 26.7-23.1 54.6-34.6 62.3-25.7 7.7 8.9-7.8 34.9-34.6 57.9-26.7 23.1-54.6 34.6-62.3 25.7zm95-74.7c0.7-3.5 0.1-5.5-0.8-6.5-0.9-1.1-2.8-2-6.4-1.8-3.5 0.2-8.1 1.3-13.6 3.6-10.8 4.4-24.2 12.8-37.3 24.2-13.2 11.3-23.5 23.3-29.5 33.4-3 5-4.8 9.4-5.5 12.9-0.7 3.5-0.1 5.5 0.8 6.6 0.9 1 2.8 1.9 6.4 1.7 3.5-0.1 8.1-1.3 13.6-3.5 10.8-4.5 24.2-12.9 37.3-24.3 13.2-11.3 23.5-23.3 29.5-33.3 3-5.1 4.8-9.5 5.5-13z"/></g></svg>