<svg version="1.2" xmlns="http://www.w3.org/2000/svg" viewBox="0 0 177 207" width="177" height="207"><style>.a{fill:#c32583}</style><path class="a" d="m26.2 226.7c1.6-20.2-8-29.5-9.9-42.3-2-12.8-0.4-32.9 0.8-47.1 1.3-14.1 2.3-22.2 0.3-29.9-3.4-14-17-46.7-17.4-54.9-0.4-8.3 5.4-7.9 7.1-6.8 3.7 2.2 5.7 8.1 7.2 11.3 4.1 8.9 10.5 25.3 15.1 35.5 4 8.8 4.9 11.7 9.2 11.1 4.3-0.6 3.6-8 3.6-8 0 0 2.7-67.4 3.6-73.9 0.9-6.6 2.7-11.8 9.1-11.2 6.5 0.7 7.2 13 7.2 13 0 0 0.2 58.3 1.5 65.8 1.3 7.6 6 3.7 6.8 1.8 0.7-1.9 3-11.8 3-11.8 0 0 5.5-30.9 8.8-44.3 3.3-13.3 5.7-23.2 9-30.1 3.4-6.8 10.1-4 11.9-1.1 1.9 3-0.5 18.7-0.5 18.7 0 0-7.2 50.6-8.2 58.7-1 8.1-1.9 10.7-1.2 14 0.7 3.3 6.2 3.7 8.1-0.6 1.9-4.4 5.6-12 5.6-12 0 0 19.3-40.5 24.8-48.6 5.5-8 9.1-6 13.9-2.7 4.8 3.2-3.3 20.3-3.3 20.3 0 0-11.1 25.1-17.4 39-6.4 13.9-9.8 25.8-10.9 33.8-1 8 0.5 14.3 6.4 15.9 4.1 1.1 8.9-1.6 11.2-3 4.7-3.2 9-7.5 16.9-13 7.9-5.6 20.6-4.9 24.9-3.1 4.5 1.8 4.4 8.3 0 10.9-14.7 8.7-16.4 11.8-20.6 17-4.5 5.5-12 13.1-17.4 22.6-5.4 9.6-14.3 18-25.6 27.4-11.3 9.4-13.5 26.2-13.5 26.2l-1.7 16.8c0 0-4.4 48.1-8.1 91.4-1.4 14.9-10.2 169.1-11.3 201.7-5.4 2.9-11 5.9-16.7 8.9-9.4-7.3-18.6-14.5-27.5-21.6q-14.5-11.6-27.8-23c6.1-56.5 22.1-260 23-272.8z"/></svg>