<svg version="1.2" xmlns="http://www.w3.org/2000/svg" viewBox="0 0 213 49" width="213" height="49"><style>.a{fill:#c32583}</style><path class="a" d="m161 217.6c-3.7-20 5-30.2 5.5-43.2 0.6-12.9-3.1-32.7-5.8-46.6-2.7-14-4.5-21.9-3.5-29.8 2-14.3 12.1-48.2 11.6-56.4-0.4-8.2-6.2-7.2-7.8-6-3.4 2.6-4.8 8.7-5.9 12-3.1 9.3-7.8 26.2-11.3 36.8-3.1 9.2-3.6 12.2-8 12-4.4-0.2-4.4-7.6-4.4-7.6 0 0-9.8-66.8-11.4-73.2-1.5-6.3-3.8-11.5-10.2-10.1-6.4 1.3-5.8 13.6-5.8 13.6 0 0 5.9 58 5.4 65.7-0.5 7.6-5.6 4.2-6.5 2.4-1-1.8-4.3-11.4-4.3-11.4 0 0-8.7-30.2-13.4-43.1-4.7-12.9-8.1-22.6-12.2-29-4.1-6.5-10.4-3-11.9 0.1-1.6 3.2 2.6 18.5 2.6 18.5 0 0 12.4 49.6 14.2 57.5 1.9 8 3.1 10.5 2.7 13.9-0.3 3.3-5.7 4.3-8.1 0.2-2.4-4.2-6.8-11.3-6.8-11.3 0 0-23.5-38.4-29.8-45.8-6.3-7.4-9.7-5-14.2-1.3-4.4 3.7 5.4 19.8 5.4 19.8 0 0 13.7 23.9 21.5 37 7.8 13.2 12.4 24.7 14.3 32.6 1.9 7.8 1.1 14.3-4.7 16.4-3.9 1.5-9.1-0.7-11.4-1.9-5-2.6-9.7-6.4-18.2-11.1-8.4-4.8-21-2.8-25.2-0.5-4.2 2.2-3.4 8.7 1.2 10.8 15.5 7.2 17.5 10 22.3 14.7 5.1 5 13.3 11.8 19.6 20.7 6.4 8.9 16.2 16.4 28.4 24.6 12.2 8.2 16.2 24.7 16.2 24.7l3.4 16.5c0 0 9.4 47.4 17.7 90 2.9 14.8 27.9 167.3 32.3 199.5q8.6 3.5 17.5 7.1c8.7-8.2 17.1-16.3 25.2-24.3 8.8-8.7 17.2-17.2 25.2-25.7-11.8-55.4-49-256.2-51.4-268.8z"/></svg>