<svg version="1.2" xmlns="http://www.w3.org/2000/svg" viewBox="0 0 246 73" width="246" height="73"><style>.a{fill:#c32583}</style><path class="a" d="m77.6 208.2c5.6-19.4-2-30.5-1.3-43.4 0.7-13 6.3-32.3 10.4-45.9 4.1-13.7 6.6-21.4 6.4-29.3-0.6-14.4-7.3-49.1-6-57.3 1.2-8.1 6.9-6.6 8.3-5.2 3.2 2.9 4 9.1 4.7 12.4 2.2 9.6 5.2 27 7.7 37.9 2 9.4 2.4 12.4 6.7 12.7 4.4 0.2 5.2-7.2 5.2-7.2 0 0 16.3-65.5 18.5-71.7 2.2-6.2 4.9-11 11.2-9.1 6.2 1.9 4.4 14.1 4.4 14.1 0 0-11.6 57.2-11.8 64.8-0.3 7.7 5.1 4.8 6.2 3.1 1.1-1.7 5.3-10.9 5.3-10.9 0 0 11.7-29.2 17.7-41.7 5.9-12.4 10.2-21.6 14.9-27.6 4.7-6.1 10.6-2 11.9 1.2 1.3 3.3-4.3 18.2-4.3 18.2 0 0-17.2 48.1-19.9 55.9-2.6 7.7-4 10.1-4 13.5 0 3.4 5.3 4.9 8.1 1 2.7-3.9 7.9-10.6 7.9-10.6 0 0 27.1-36 34.1-42.7 7-6.8 10.1-4.1 14.2 0 4.1 4.2-7.3 19.2-7.3 19.2 0 0-16 22.5-25 34.8-9.1 12.4-14.8 23.3-17.5 31-2.7 7.6-2.4 14.1 3 16.8 3.9 1.8 9.1 0.2 11.6-0.8 5.2-2.1 10.3-5.5 19.2-9.4 8.8-3.8 21.1-0.6 25.1 2 3.9 2.6 2.6 9-2.3 10.7-16 5.6-18.4 8.2-23.5 12.5-5.6 4.5-14.5 10.4-21.7 18.7-7.2 8.3-17.6 14.8-30.6 21.8-12.9 6.9-18.5 22.9-18.5 22.9l-5 16.2c0 0-14.1 46.2-26.5 87.8-4.2 14.4-44.1 163.8-51.7 195.4-6 1.8-12 3.6-18.1 5.4-7.8-9.1-15.4-17.9-22.6-26.7-7.9-9.5-15.4-18.8-22.6-28 17.1-53.9 73.9-250.1 77.5-262.5z"/></svg>