<svg version="1.2" xmlns="http://www.w3.org/2000/svg" viewBox="0 0 191 200" width="191" height="200"><style>.a{fill:#c32583}</style><path class="a" d="m68.3 237c-3.2-20-14.8-26.8-19.7-38.8-4.9-12-8.2-31.9-10.3-45.9-2.2-14.1-3.1-22.1-6.8-29.2-6.6-12.8-27.6-41.5-30-49.4-2.3-7.9 3.4-8.9 5.3-8.3 4.2 1.4 7.5 6.6 9.7 9.3 6 7.8 16.2 22.2 23.1 31 6 7.7 7.5 10.3 11.6 8.7 4-1.7 1.5-8.7 1.5-8.7 0 0-13.2-66-13.9-72.6-0.7-6.6-0.3-12.1 6.2-12.9 6.5-0.9 10.1 10.9 10.1 10.9 0 0 14 56.6 17 63.6 3 7.1 6.7 2.2 7 0.2 0.3-2.1 0.1-12.1 0.1-12.1 0 0-1.9-31.4-1.9-45.1 0.1-13.8 0-24 1.7-31.4 1.7-7.5 8.8-6.3 11.3-3.9 2.6 2.4 3.8 18.3 3.8 18.3 0 0 5.1 50.8 6 58.9 1 8.2 0.7 10.9 2.2 14 1.4 3 6.8 2.1 7.7-2.5 0.8-4.7 2.6-13 2.6-13 0 0 9.2-43.9 12.6-53 3.4-9 7.4-7.9 12.9-5.9 5.5 2 1.6 20.5 1.6 20.5 0 0-4.9 27-7.7 42-2.9 15-3.4 27.4-2.6 35.4 0.9 8 3.8 13.8 10 13.9 4.2 0.1 8.3-3.6 10.1-5.6 3.8-4.1 7-9.3 13.4-16.5 6.4-7.2 18.8-9.5 23.5-8.8 4.7 0.7 6.2 7 2.6 10.6-12.2 11.9-13.2 15.2-16 21.2-3.1 6.4-8.6 15.6-11.6 26.1-3 10.5-9.7 20.8-18.4 32.6-8.7 11.7-6.9 28.6-6.9 28.6l2.4 16.7c0 0 7.1 47.8 13.7 90.7 2.2 14.8 30.2 166.8 36.9 198.7q-7 6.1-14.1 12.4-16.5-7.3-31.9-14.5c-11.2-5.3-22-10.6-32.5-15.9-7.5-56.1-40.2-257.6-42.3-270.3z"/></svg>